<svg width="200" height="200" viewBox="0 0 200 200" fill="none" xmlns="http://www.w3.org/2000/svg">
    <path d="M115.126 42.151c-1.529-5.707-6.858-9.372-12.534-9.015l.237 3.776-.237-3.776c-3.843.242-5.353 3.99-4.64 6.652l3.483 12.996c.713 2.663 3.895 5.154 7.344 3.442 5.094-2.529 7.876-8.367 6.347-14.075z" fill="#E0FFB5" stroke="#0BAA78" stroke-width="7.568"/>
    <path fill-rule="evenodd" clip-rule="evenodd" d="M143.475 54.047c5.661.3 10.737 4.184 12.283 9.957 1.924 7.177-2.336 14.555-9.513 16.478a13.408 13.408 0 0 1-9.888-1.165 13.41 13.41 0 0 1-7.981 5.953 13.407 13.407 0 0 1-9.888-1.165 13.41 13.41 0 0 1-7.982 5.953c-3.46.927-6.968.417-9.888-1.165a13.406 13.406 0 0 1-7.98 5.953c-7.178 1.923-14.556-2.336-16.479-9.514-1.546-5.772.906-11.675 5.66-14.764-1.294-6.85 2.897-13.645 9.741-15.479a13.407 13.407 0 0 1 9.888 1.164 13.41 13.41 0 0 1 7.981-5.952 13.41 13.41 0 0 1 9.888 1.164 13.406 13.406 0 0 1 7.982-5.953c6.845-1.834 13.872 1.955 16.176 8.535z" fill="#E0FFB5"/>
    <path d="m143.475 54.047-3.968 1.39.931 2.66 2.815.149.222-4.199zm-7.118 25.27 2.002-3.696-3.501-1.897-2.084 3.393 3.583 2.2zm-17.869 4.788 2.002-3.697-3.501-1.896-2.084 3.393 3.583 2.2zm-17.87 4.788 2.003-3.697L99.12 83.3l-2.084 3.393 3.582 2.2zm-18.8-18.325 2.292 3.525 2.363-1.536-.523-2.77-4.131.78zm9.742-15.479 1.089 4.061-1.089-4.061zm9.888 1.164-2.002 3.697 3.501 1.897 2.084-3.393-3.583-2.2zm7.981-5.952 1.089 4.061-1.089-4.061zm9.888 1.164-2.002 3.697 3.501 1.896 2.084-3.393-3.583-2.2zm40.503 11.45c-2.032-7.582-8.697-12.674-16.123-13.066l-.444 8.397a9.256 9.256 0 0 1 8.444 6.846l8.123-2.176zm-12.487 21.628c9.42-2.524 15.011-12.207 12.487-21.627l-8.123 2.176a9.25 9.25 0 0 1-6.54 11.329l2.176 8.122zm-12.979-1.529a17.613 17.613 0 0 0 12.979 1.53l-2.176-8.123a9.205 9.205 0 0 1-6.798-.8l-4.005 7.393zm-4.89 6.317a17.612 17.612 0 0 0 10.475-7.813l-7.165-4.401a9.2 9.2 0 0 1-5.486 4.092l2.176 8.122zm-12.979-1.529a17.612 17.612 0 0 0 12.979 1.529l-2.176-8.122a9.205 9.205 0 0 1-6.798-.8l-4.005 7.393zm-4.89 6.317a17.611 17.611 0 0 0 10.475-7.813l-7.165-4.401a9.207 9.207 0 0 1-5.487 4.092l2.177 8.122zm-12.979-1.528a17.613 17.613 0 0 0 12.979 1.528l-2.177-8.122a9.203 9.203 0 0 1-6.797-.8l-4.005 7.394zm-4.89 6.316a17.611 17.611 0 0 0 10.475-7.813l-7.165-4.401a9.204 9.204 0 0 1-5.487 4.092l2.176 8.122zM72.097 86.421c2.524 9.42 12.207 15.01 21.627 12.486l-2.176-8.122a9.25 9.25 0 0 1-11.328-6.54l-8.123 2.175zm7.43-19.379c-6.236 4.053-9.462 11.796-7.43 19.379l8.123-2.177a9.256 9.256 0 0 1 3.89-10.151l-4.583-7.05zm6.422 2.745A9.25 9.25 0 0 1 92.65 59.15l-2.177-8.122c-8.985 2.407-14.483 11.324-12.784 20.32l8.262-1.56zM92.65 59.15a9.204 9.204 0 0 1 6.797.8l4.005-7.394a17.614 17.614 0 0 0-12.979-1.528l2.177 8.122zm15.692-12.91a17.613 17.613 0 0 0-10.475 7.813l7.165 4.4a9.204 9.204 0 0 1 5.487-4.091l-2.177-8.122zm12.978 1.528a17.613 17.613 0 0 0-12.978-1.528l2.177 8.122a9.204 9.204 0 0 1 6.797.8l4.004-7.394zm4.891-6.318a17.611 17.611 0 0 0-10.476 7.815l7.166 4.4a9.2 9.2 0 0 1 5.487-4.092l-2.177-8.123zm21.233 11.208c-3.026-8.641-12.247-13.615-21.233-11.208l2.177 8.123a9.251 9.251 0 0 1 11.12 5.864l7.936-2.78z" fill="#0BAA78"/>
    <path fill-rule="evenodd" clip-rule="evenodd" d="M140.39 125.426a13.433 13.433 0 0 1-8.914 7.763 13.427 13.427 0 0 1-11.601-2.266c-.604.262-1.234.482-1.888.658-6.173 1.654-12.494-1.265-15.366-6.681-6.127.222-11.816-3.793-13.47-9.967a13.5 13.5 0 0 1-.44-2.713 13.434 13.434 0 0 1-7.916-8.978c-1.923-7.177 2.336-14.554 9.513-16.478a13.408 13.408 0 0 1 9.888 1.165 13.41 13.41 0 0 1 7.981-5.953 13.408 13.408 0 0 1 9.888 1.164 13.41 13.41 0 0 1 7.981-5.952 13.41 13.41 0 0 1 9.889 1.164 13.407 13.407 0 0 1 7.981-5.952c7.177-1.923 14.555 2.336 16.478 9.513a13.433 13.433 0 0 1-2.368 11.733c.405.806.734 1.664.977 2.57 1.654 6.173-1.266 12.494-6.683 15.365.222 6.127-3.793 11.816-9.966 13.47-.655.176-1.311.3-1.964.375z" fill="#9DE89F"/>
    <path d="m140.39 125.426-.48-4.177-2.437.28-.956 2.259 3.873 1.638zm-20.515 5.497 2.535-3.355-1.958-1.479-2.25.977 1.673 3.857zm-17.254-6.023 3.715-1.97-1.235-2.327-2.632.095.152 4.202zm-13.91-12.68 4.198-.245-.154-2.645-2.453-1.002-1.59 3.892zm11.485-24.291-2.002 3.697 3.501 1.896 2.084-3.393-3.583-2.2zm17.869-4.789-2.002 3.697 3.501 1.897 2.084-3.393-3.583-2.2zm17.87-4.788-2.003 3.697 3.501 1.897 2.084-3.393-3.582-2.2zm22.091 15.294-3.323-2.575-1.623 2.094 1.189 2.368 3.757-1.887zm-5.706 17.935-1.969-3.714-2.327 1.234.095 2.632 4.201-.152zm-15.803 12.207a9.224 9.224 0 0 1-6.129 5.34l2.176 8.123a17.636 17.636 0 0 0 11.698-10.188l-7.745-3.275zm-6.129 5.34a9.224 9.224 0 0 1-7.978-1.56l-5.07 6.709a17.637 17.637 0 0 0 15.224 2.974l-2.176-8.123zm-12.186-2.062a9.365 9.365 0 0 1-1.304.453l2.177 8.123c.855-.229 1.68-.518 2.473-.862l-3.346-7.714zm-1.304.453a9.253 9.253 0 0 1-10.562-4.589l-7.43 3.94c3.77 7.108 12.062 10.944 20.169 8.772l-2.177-8.123zm-14.429-6.821a9.254 9.254 0 0 1-9.257-6.853l-8.123 2.177c2.173 8.108 9.642 13.371 17.684 13.08l-.304-8.404zm-9.257-6.853a9.303 9.303 0 0 1-.303-1.87l-8.395.489a17.72 17.72 0 0 0 .575 3.558l8.123-2.177zm-2.91-5.517a9.23 9.23 0 0 1-5.446-6.174l-8.122 2.177a17.639 17.639 0 0 0 10.387 11.781l3.18-7.784zm-5.446-6.174a9.25 9.25 0 0 1 6.54-11.328l-2.176-8.123c-9.42 2.525-15.01 12.207-12.486 21.628l8.122-2.177zm6.54-11.328a9.204 9.204 0 0 1 6.798.8l4.004-7.394a17.61 17.61 0 0 0-12.978-1.529l2.177 8.123zm12.383-.697a9.2 9.2 0 0 1 5.487-4.092l-2.177-8.122a17.614 17.614 0 0 0-10.476 7.813l7.166 4.401zm5.487-4.092a9.203 9.203 0 0 1 6.797.8l4.005-7.394a17.613 17.613 0 0 0-12.979-1.528l2.177 8.122zm12.382-.696a9.207 9.207 0 0 1 5.487-4.092l-2.177-8.122a17.611 17.611 0 0 0-10.475 7.813l7.165 4.4zm5.487-4.092a9.202 9.202 0 0 1 6.797.8l4.005-7.394a17.612 17.612 0 0 0-12.979-1.528l2.177 8.122zm12.382-.696a9.207 9.207 0 0 1 5.487-4.092l-2.176-8.122a17.61 17.61 0 0 0-10.476 7.813l7.165 4.4zm5.487-4.092c4.934-1.322 10.006 1.606 11.329 6.54l8.122-2.176c-2.524-9.42-12.207-15.01-21.627-12.486l2.176 8.122zm11.329 6.54a9.229 9.229 0 0 1-1.63 8.07l6.647 5.151a17.637 17.637 0 0 0 3.105-15.397l-8.122 2.177zm-2.064 12.532c.277.552.504 1.143.672 1.77l8.123-2.176a17.724 17.724 0 0 0-1.28-3.367l-7.515 3.773zm.672 1.77a9.255 9.255 0 0 1-4.59 10.564l3.939 7.429c7.109-3.769 10.946-12.061 8.774-20.17l-8.123 2.177zm-6.822 14.43a9.255 9.255 0 0 1-6.853 9.257l2.176 8.123c8.108-2.173 13.371-9.642 13.08-17.683l-8.403.303zm-6.853 9.257a9.379 9.379 0 0 1-1.356.259l.959 8.354a17.826 17.826 0 0 0 2.573-.49l-2.176-8.123z" fill="#0BAA78"/>
    <path d="M120.425 84.493c0 5.69-1.294 10.674-3.214 14.118-1.982 3.555-4.187 4.801-5.848 4.801-1.661 0-3.866-1.246-5.848-4.8-1.921-3.445-3.214-8.43-3.214-14.12 0-5.69 1.293-10.674 3.214-14.118 1.982-3.555 4.187-4.801 5.848-4.801 1.661 0 3.866 1.246 5.848 4.8 1.92 3.445 3.214 8.43 3.214 14.12z" fill="#fff" stroke="#0BAA78" stroke-width="6.727"/>
    <ellipse cx="115.136" cy="80.191" rx="7.374" ry="10.48" fill="#0BAA78"/>
    <path d="M141.598 84.493c0 5.684-1.306 10.664-3.245 14.105-1.998 3.545-4.233 4.814-5.949 4.814-1.715 0-3.95-1.269-5.948-4.814-1.939-3.441-3.245-8.421-3.245-14.105 0-5.685 1.306-10.665 3.245-14.106 1.998-3.546 4.233-4.814 5.948-4.814 1.716 0 3.951 1.269 5.949 4.814 1.939 3.441 3.245 8.421 3.245 14.106z" fill="#fff" stroke="#0BAA78" stroke-width="6.727"/>
    <ellipse cx="135.823" cy="80.191" rx="7.374" ry="10.48" fill="#0BAA78"/>
    <ellipse cx="137.548" cy="76.771" rx=".883" ry="1.765" fill="#fff"/>
    <ellipse cx="116.367" cy="76.771" rx=".883" ry="1.765" fill="#fff"/>
    <path d="M58.83 90.757c-20.472 3.973-13.76 19.706 2 7.478" stroke="#48BF91" stroke-width="4.204" stroke-linecap="round"/>
    <path opacity=".65" d="M74.054 116.151c-5.746.141-19.172 1.682-26.909 6.727M74.054 125.4c-5.746.141-19.172 1.682-26.909 6.727" stroke="#48BF91" stroke-width="4.204" stroke-linecap="round"/>
    <path d="M52.976 70.162c-20.803-1.451-18.384 15.482 0 7.74M67.177 47.532c-18.746-9.135-22.843 7.472-2.898 7.178" stroke="#48BF91" stroke-width="4.204" stroke-linecap="round"/>
</svg>
