<svg width="24" height="24" viewBox="0 0 24 24" fill="none" xmlns="http://www.w3.org/2000/svg">
    <path d="M17.285 4a2.697 2.697 0 0 0-1.913.802L4.966 15.208l-.04.206-.72 3.62L4 20l.967-.205 3.62-.72.205-.042L19.198 8.627a2.682 2.682 0 0 0 0-3.825A2.696 2.696 0 0 0 17.285 4zm0 1.254c.331 0 .666.152.987.474.64.64.64 1.334 0 1.974l-.473.452L15.845 6.2l.453-.472c.322-.322.655-.474.987-.474zM14.92 7.126l1.954 1.954-7.959 7.958a4.483 4.483 0 0 0-1.954-1.953l7.96-7.959zm-8.802 9.029a3.116 3.116 0 0 1 1.728 1.727l-2.16.432.432-2.16z" fill="#D8D8D8"/>
    <rect x="16.438" y="5.609" width="2.757" height="4" rx=".4" transform="rotate(45 16.438 5.61)" fill="#fff"/>
</svg>
