<svg width="24" height="24" viewBox="0 0 24 24" fill="none" xmlns="http://www.w3.org/2000/svg">
    <path d="M22.083 11.396c-.824-1.736-1.804-3.152-2.941-4.247L17.949 8.34c.973.93 1.82 2.145 2.552 3.66-1.95 4.035-4.718 5.952-8.5 5.952-1.136 0-2.182-.174-3.138-.524L7.57 18.72c1.328.613 2.804.92 4.43.92 4.504 0 7.865-2.346 10.082-7.038a1.414 1.414 0 0 0 0-1.207zm-1.49-7.516-.999-1a.188.188 0 0 0-.265 0l-2.564 2.562C15.352 4.721 13.764 4.36 12 4.36c-4.504 0-7.865 2.346-10.082 7.038a1.414 1.414 0 0 0 0 1.207c.885 1.865 1.952 3.36 3.199 4.486l-2.48 2.48a.187.187 0 0 0 0 .265l1 1a.187.187 0 0 0 .265 0l16.691-16.69a.189.189 0 0 0 .041-.205.189.189 0 0 0-.04-.06zM3.5 12C5.452 7.964 8.22 6.047 12 6.047c1.279 0 2.44.22 3.495.665L13.848 8.36a4.125 4.125 0 0 0-5.581 5.581L6.31 15.896C5.23 14.941 4.296 13.647 3.5 12zm5.782 0a2.627 2.627 0 0 1 3.426-2.5l-3.302 3.302A2.626 2.626 0 0 1 9.282 12z" fill="#AAA"/>
    <path d="M11.906 14.625c-.081 0-.161-.004-.24-.011l-1.238 1.238a4.128 4.128 0 0 0 5.33-5.33l-1.238 1.237a2.613 2.613 0 0 1-.188 1.245 2.623 2.623 0 0 1-2.426 1.62z" fill="#AAA"/>
</svg>
