<svg width="24" height="24" viewBox="0 0 24 24" fill="none" xmlns="http://www.w3.org/2000/svg">
    <path d="M20.25 12.57V11.423l1.44-1.26a1.5 1.5 0 0 0 .285-1.913l-1.77-3a1.5 1.5 0 0 0-1.298-.75 1.5 1.5 0 0 0-.48.075l-1.822.615a8.502 8.502 0 0 0-.983-.562l-.382-1.89a1.5 1.5 0 0 0-1.5-1.208h-3.51a1.5 1.5 0 0 0-1.5 1.208l-.383 1.89a8.61 8.61 0 0 0-.99.562l-1.785-.645a1.5 1.5 0 0 0-.48-.045 1.5 1.5 0 0 0-1.297.75l-1.77 3a1.5 1.5 0 0 0 .307 1.883L3.75 11.43v1.148l-1.418 1.26a1.5 1.5 0 0 0-.307 1.912l1.77 3a1.5 1.5 0 0 0 1.297.75c.163.001.326-.024.48-.075l1.823-.615c.315.21.643.397.982.563l.383 1.89a1.5 1.5 0 0 0 1.5 1.207h3.54a1.5 1.5 0 0 0 1.5-1.207l.382-1.89c.342-.166.673-.354.99-.563l1.815.615c.155.051.317.076.48.075a1.5 1.5 0 0 0 1.298-.75l1.71-3a1.5 1.5 0 0 0-.308-1.882L20.25 12.57zM18.907 18l-2.572-.87c-.602.51-1.29.909-2.033 1.178L13.77 21h-3.54l-.533-2.662a7.023 7.023 0 0 1-2.025-1.178l-2.58.84-1.77-3 2.04-1.8a6.675 6.675 0 0 1 0-2.347L3.322 9l1.77-3 2.573.87a6.645 6.645 0 0 1 2.032-1.177L10.23 3h3.54l.532 2.663c.737.276 1.421.674 2.025 1.177l2.58-.84 1.77 3-2.04 1.8a6.674 6.674 0 0 1 0 2.348L20.677 15l-1.77 3z" fill="#AAA" stroke="#fff" stroke-width=".2"/>
    <path d="M12 16.5a4.5 4.5 0 1 1 4.5-4.5 4.456 4.456 0 0 1-4.5 4.5zM12 9a2.933 2.933 0 0 0-3 3 2.933 2.933 0 0 0 3 3 2.933 2.933 0 0 0 3-3 2.933 2.933 0 0 0-3-3z" fill="#AAA" stroke="#fff" stroke-width=".2"/>
</svg>
