<svg width="32" height="32" viewBox="0 0 32 32" fill="none" xmlns="http://www.w3.org/2000/svg">
    <circle cx="16" cy="16" r="16" fill="#AAA"/>
    <path d="M18.778 16.556a2.778 2.778 0 1 1-5.555 0 2.778 2.778 0 0 1 5.555 0z" fill="#fff"/>
    <path d="M9.334 11.556a2.222 2.222 0 0 0-2.223 2.222v6.667a2.222 2.222 0 0 0 2.223 2.222h13.333a2.222 2.222 0 0 0 2.222-2.222v-6.667a2.222 2.222 0 0 0-2.222-2.222h-1.302c-.59 0-1.155-.235-1.571-.651l-.92-.92a2.222 2.222 0 0 0-1.572-.651h-2.604c-.59 0-1.155.234-1.571.65l-.92.92a2.222 2.222 0 0 1-1.571.652H9.334zm.555 2.222a.555.555 0 1 1 0-1.111.555.555 0 0 1 0 1.11zm10 2.778a3.889 3.889 0 1 1-7.778 0 3.889 3.889 0 0 1 7.778 0z" fill="#fff"/>
    <path fill="#fff" d="M8 12.445h3.556v2.667H8z"/>
</svg>
