<svg width="24" height="24" viewBox="0 0 24 24" fill="none" xmlns="http://www.w3.org/2000/svg">
    <path d="M22.083 11.395C19.861 6.715 16.503 4.36 12 4.36c-4.504 0-7.86 2.356-10.082 7.039a1.413 1.413 0 0 0 0 1.207C4.139 17.285 7.498 19.64 12 19.64c4.505 0 7.861-2.356 10.083-7.039.18-.38.18-.82 0-1.207zM12 17.953c-3.78 0-6.548-1.917-8.5-5.953C5.452 7.964 8.22 6.047 12 6.047c3.78 0 6.549 1.917 8.501 5.953-1.95 4.036-4.718 5.953-8.5 5.953zm-.093-10.078a4.125 4.125 0 1 0 0 8.25 4.125 4.125 0 0 0 0-8.25zm0 6.75A2.624 2.624 0 0 1 9.282 12a2.624 2.624 0 0 1 2.625-2.625A2.624 2.624 0 0 1 14.532 12a2.624 2.624 0 0 1-2.625 2.625z" fill="#323232"/>
</svg>
