<svg width="260" height="57" viewBox="0 0 260 57" fill="none" xmlns="http://www.w3.org/2000/svg">
    <path d="M90.553 30.137v8.816h11.062c.776 0 1.414.07 1.913.208.499.166.887.374 1.164.624.277.277.457.582.541.915.11.36.166.748.166 1.164 0 .333-.056.665-.166.998-.084.36-.264.665-.541.915-.277.277-.665.499-1.164.665-.499.166-1.137.25-1.913.25H72.713c-.776 0-1.414-.084-1.913-.25-.499-.166-.887-.388-1.164-.665a1.998 1.998 0 0 1-.582-.915 4.1 4.1 0 0 1-.125-.998c0-.416.041-.804.124-1.164.111-.333.305-.638.583-.915.277-.25.665-.458 1.164-.624.5-.139 1.137-.208 1.913-.208h11.103v-8.816h-8.525c-.776 0-1.386-.083-1.83-.25-.443-.166-.79-.388-1.04-.665a2.261 2.261 0 0 1-.415-.998 8.528 8.528 0 0 1-.083-1.206V13.544c0-1.386.332-2.328.998-2.827a3.814 3.814 0 0 1 2.37-.79H98.87c.693 0 1.248.083 1.663.249.416.166.735.388.957.665.222.278.36.597.416.957.083.332.124.68.124 1.04 0 .304-.041.623-.124.956a1.966 1.966 0 0 1-.416.915c-.222.277-.541.513-.957.707-.415.194-.97.29-1.663.29H78.66v8.65h20.626c.693 0 1.247.098 1.663.292.416.194.735.43.957.707.222.277.36.596.416.956.083.333.124.638.124.915 0 .36-.041.72-.124 1.081a1.967 1.967 0 0 1-.416.915c-.222.277-.541.5-.957.665-.416.167-.97.25-1.663.25h-8.733zm39.514 2.786v6.03h11.062c.776 0 1.414.07 1.913.208.499.166.887.374 1.164.624.277.277.457.582.541.915.11.36.166.748.166 1.164 0 .333-.056.665-.166.998-.084.36-.264.665-.541.915-.277.277-.665.499-1.164.665-.499.166-1.137.25-1.913.25h-28.902c-.776 0-1.414-.084-1.913-.25-.499-.166-.887-.388-1.164-.665a1.995 1.995 0 0 1-.583-.915 4.109 4.109 0 0 1-.124-.998c0-.416.041-.804.124-1.164a2.33 2.33 0 0 1 .583-.915c.277-.25.665-.458 1.164-.624.499-.139 1.137-.208 1.913-.208h11.103v-6.03h-8.525c-.776 0-1.386-.083-1.83-.25-.443-.166-.79-.388-1.039-.665a2.253 2.253 0 0 1-.416-.998 8.588 8.588 0 0 1-.083-1.206V13.212c0-.693.083-1.248.249-1.664.194-.443.444-.776.749-.998.333-.25.693-.416 1.081-.499a6.562 6.562 0 0 1 1.289-.124h23.579c.693 0 1.248.083 1.663.249.416.166.735.388.957.665.222.278.36.583.416.915.083.333.124.68.124 1.04 0 .305-.041.624-.124.956a2.25 2.25 0 0 1-.416.915c-.222.277-.541.513-.957.707-.415.166-.97.25-1.663.25h-20.21v2.91h20.21c.693 0 1.248.084 1.663.25.416.167.735.388.957.666.222.277.36.582.416.914.083.333.124.68.124 1.04 0 .305-.041.624-.124.956-.056.305-.194.61-.416.915-.222.278-.541.513-.957.707-.415.167-.97.25-1.663.25h-20.21v2.994H138.8c.693 0 1.247.097 1.663.291.416.166.735.402.957.707.222.277.36.582.416.915a3.8 3.8 0 0 1 .124.915c0 .36-.041.72-.124 1.081a1.967 1.967 0 0 1-.416.915c-.222.25-.541.457-.957.624-.416.166-.97.25-1.663.25h-8.733zm45.544-19.794c0-1.387.333-2.33.998-2.828a3.813 3.813 0 0 1 2.37-.79c.444 0 .86.055 1.248.166.416.11.776.305 1.081.582.305.277.554.652.749 1.123.194.471.291 1.053.291 1.747V41.53c0 .721-.097 1.317-.291 1.788-.195.472-.444.846-.749 1.123a2.562 2.562 0 0 1-1.081.582c-.388.111-.804.167-1.248.167-.443 0-.873-.056-1.289-.167a2.945 2.945 0 0 1-1.081-.582c-.305-.277-.555-.651-.749-1.123-.166-.47-.249-1.067-.249-1.788V13.13zm-19.129 25.283h7.152c.777 0 1.414.084 1.913.25.499.166.887.374 1.165.624.277.277.457.582.54.914.111.36.167.707.167 1.04 0 .416-.056.79-.167 1.123-.083.36-.263.665-.54.915-.278.277-.666.485-1.165.624-.499.166-1.136.25-1.913.25h-10.521c-.776 0-1.386-.084-1.829-.25-.444-.139-.791-.347-1.04-.624a1.737 1.737 0 0 1-.416-.915 6.92 6.92 0 0 1-.083-1.123V26.477c0-.415.028-.804.083-1.164.055-.388.194-.735.416-1.04.249-.305.596-.54 1.04-.706.443-.195 1.053-.292 1.829-.292h6.446V15.75h-5.988c-.777 0-1.414-.084-1.913-.25-.499-.166-.887-.374-1.165-.624a2.338 2.338 0 0 1-.582-.915 4.633 4.633 0 0 1-.125-1.04c0-.415.042-.79.125-1.122.111-.36.305-.665.582-.915.278-.277.666-.485 1.165-.624.499-.166 1.136-.25 1.913-.25h9.356c.777 0 1.387.098 1.83.292.444.166.776.402.998.707.25.305.402.651.458 1.04.055.36.083.748.083 1.164v12.517c0 1.164-.347 2.01-1.04 2.537-.665.499-1.594.748-2.786.748h-5.988v9.398zm35.189 7.236c-.776 0-1.386-.083-1.83-.25-.443-.138-.79-.346-1.04-.623a1.744 1.744 0 0 1-.415-.915 6.803 6.803 0 0 1-.084-1.123v-6.986c0-1.054.264-1.913.791-2.578.554-.694 1.552-1.04 2.994-1.04h23.786c.777 0 1.387.083 1.83.25.444.138.776.346.998.623.25.25.402.555.458.915.055.333.083.707.083 1.123v6.986c0 1.386-.361 2.329-1.081 2.828-.721.527-1.622.79-2.703.79h-23.787zm-4.99-27.612c0-.416.041-.763.124-1.04.111-.305.305-.554.583-.748.277-.222.665-.375 1.164-.458.499-.11 1.137-.166 1.913-.166h14.471c.777 0 1.414.055 1.913.166.499.083.888.236 1.165.457.277.195.457.444.54.749.111.277.167.624.167 1.04 0 .61-.18 1.109-.541 1.497-.36.36-1.109.582-2.245.665.471.86.706 1.788.706 2.786 0 2.523-.72 4.353-2.162 5.49-1.414 1.136-3.673 1.704-6.778 1.704-3.105 0-5.379-.61-6.82-1.83-1.414-1.22-2.121-3.007-2.121-5.364 0-1.026.222-1.954.665-2.786-1.136-.083-1.885-.305-2.245-.665-.333-.388-.499-.887-.499-1.497zm25.824-4.907c0-1.387.333-2.33.998-2.828a3.813 3.813 0 0 1 2.37-.79c.444 0 .86.055 1.248.166.416.11.776.305 1.081.582.305.277.555.652.749 1.123.194.471.291 1.053.291 1.747v4.158h2.62c.776 0 1.414.083 1.913.25.499.166.887.388 1.164.665.277.25.457.554.541.915.11.332.166.665.166.998 0 .416-.056.804-.166 1.164a1.971 1.971 0 0 1-.541.915c-.277.25-.665.458-1.164.624-.499.138-1.137.208-1.913.208h-2.62v4.034c0 .72-.097 1.317-.291 1.788-.194.471-.444.845-.749 1.123a2.562 2.562 0 0 1-1.081.582c-.388.11-.804.166-1.248.166-.443 0-.873-.055-1.289-.166a2.945 2.945 0 0 1-1.081-.582c-.305-.278-.554-.652-.749-1.123-.166-.471-.249-1.068-.249-1.788V13.129zm-22.789-1.789c0-.804.236-1.386.707-1.746.499-.388 1.525-.582 3.078-.582h8.4c1.552 0 2.564.194 3.035.582.5.36.749.942.749 1.746 0 .694-.249 1.248-.749 1.664-.471.388-1.483.582-3.035.582h-8.4c-1.553 0-2.579-.194-3.078-.582-.471-.416-.707-.97-.707-1.664zm5.323 26.324v2.453h17.466v-2.453h-17.466zm.208-14.68c0 .277.028.582.083.915.083.305.208.596.375.873.194.25.443.472.748.666.333.166.749.25 1.248.25.526 0 .942-.084 1.247-.25.333-.194.582-.416.749-.666.194-.277.319-.568.374-.873.055-.332.083-.637.083-.915 0-.277-.028-.568-.083-.873a1.904 1.904 0 0 0-.374-.873 1.767 1.767 0 0 0-.749-.666c-.305-.194-.721-.29-1.247-.29-.499 0-.915.096-1.248.29a2.163 2.163 0 0 0-.748.666c-.167.25-.292.54-.375.873a4.925 4.925 0 0 0-.083.873z" fill="#0BAA78"/>
    <path d="M37.69 11.372a4.92 4.92 0 0 0-5.056-3.636c-1.55.097-2.16 1.609-1.872 2.683l1.405 5.243c.288 1.074 1.572 2.079 2.963 1.388a4.92 4.92 0 0 0 2.56-5.678z" fill="#E0FFB5" stroke="#0BAA78" stroke-width="3.053"/>
    <path fill-rule="evenodd" clip-rule="evenodd" d="M32.173 17.061a5.41 5.41 0 0 1 3.22-2.4 5.409 5.409 0 0 1 3.988.469 5.428 5.428 0 0 1 9.745 1.042 5.43 5.43 0 0 1 1.117 10.663 5.408 5.408 0 0 1-3.989-.47 5.409 5.409 0 0 1-3.22 2.402 5.409 5.409 0 0 1-3.988-.47 5.41 5.41 0 0 1-3.22 2.4 5.409 5.409 0 0 1-3.989-.469 5.427 5.427 0 1 1-7.583-7.393 5.428 5.428 0 0 1 7.919-5.774z" fill="#E0FFB5"/>
    <path d="m35.392 14.66-.439-1.638.44 1.638zm-3.22 2.401-.807 1.491 1.412.766.841-1.37-1.445-.887zm7.209-1.931-.808 1.491 1.413.765.84-1.369-1.445-.887zm3.22-2.401-.44-1.639.44 1.639zm6.525 3.442-1.6.561.375 1.073 1.135.06.09-1.694zm-2.872 10.194.808-1.491-1.412-.765-.841 1.369 1.445.887zm-7.208 1.932.807-1.492-1.412-.765-.84 1.369 1.445.888zm-7.209 1.931.808-1.491-1.412-.765-.84 1.368 1.444.888zm-3.22 2.401-.438-1.638.439 1.638zm-4.363-9.794.924 1.423.954-.62-.211-1.117-1.667.314zm10.7-9.813a7.105 7.105 0 0 0-4.226 3.152l2.89 1.775a3.713 3.713 0 0 1 2.213-1.65l-.878-3.277zm5.235.616a7.105 7.105 0 0 0-5.236-.616l.878 3.276a3.712 3.712 0 0 1 2.742.323l1.616-2.983zm1.973-2.548a7.105 7.105 0 0 0-4.226 3.152l2.89 1.775a3.713 3.713 0 0 1 2.214-1.65l-.878-3.277zm8.565 4.52a7.124 7.124 0 0 0-8.565-4.52l.878 3.277a3.732 3.732 0 0 1 4.485 2.365l3.202-1.121zm4.992 4.139a7.126 7.126 0 0 0-6.504-5.271l-.179 3.387a3.734 3.734 0 0 1 3.406 2.762l3.277-.878zm-5.037 8.724a7.123 7.123 0 0 0 5.037-8.724l-3.277.878a3.731 3.731 0 0 1-2.638 4.57l.878 3.276zm-5.236-.616a7.105 7.105 0 0 0 5.236.616l-.878-3.276c-.96.257-1.93.117-2.742-.323l-1.616 2.983zm-1.972 2.548a7.105 7.105 0 0 0 4.225-3.152l-2.89-1.775a3.713 3.713 0 0 1-2.213 1.65l.878 3.277zm-5.236-.617a7.105 7.105 0 0 0 5.236.617l-.878-3.277c-.961.258-1.93.117-2.743-.323l-1.615 2.983zm-1.973 2.548a7.105 7.105 0 0 0 4.226-3.152L37.6 27.41a3.713 3.713 0 0 1-2.214 1.65l.878 3.277zm-5.235-.616a7.105 7.105 0 0 0 5.235.616l-.878-3.276c-.96.257-1.93.116-2.742-.323L31.03 31.72zm-1.973 2.548a7.105 7.105 0 0 0 4.226-3.152l-2.89-1.776a3.713 3.713 0 0 1-2.214 1.651l.878 3.277zm-8.724-5.037a7.123 7.123 0 0 0 8.724 5.037l-.878-3.277a3.731 3.731 0 0 1-4.57-2.638l-3.277.878zm2.997-7.818a7.126 7.126 0 0 0-2.997 7.818l3.276-.878a3.734 3.734 0 0 1 1.57-4.095l-1.849-2.845zm2.59 1.108a3.732 3.732 0 0 1 2.703-4.291l-.878-3.277a7.124 7.124 0 0 0-5.157 8.197l3.333-.63zm2.703-4.291a3.713 3.713 0 0 1 2.742.322l1.616-2.982a7.105 7.105 0 0 0-5.236-.617l.878 3.277z" fill="#0BAA78"/>
    <path fill-rule="evenodd" clip-rule="evenodd" d="M44.287 48.097c-1.682.45-3.391.06-4.68-.915a5.43 5.43 0 0 1-6.96-2.43 5.43 5.43 0 0 1-5.612-5.115 5.427 5.427 0 1 1 4.633-9.799 5.409 5.409 0 0 1 3.22-2.4 5.409 5.409 0 0 1 3.99.47 5.408 5.408 0 0 1 3.219-2.402 5.408 5.408 0 0 1 3.988.47 5.427 5.427 0 1 1 8.911 6.17 5.43 5.43 0 0 1-2.302 7.235 5.43 5.43 0 0 1-4.812 5.584 5.418 5.418 0 0 1-3.595 3.132z" fill="#9DE89F"/>
    <path d="m39.606 47.182 1.023-1.353-.79-.596-.907.393.674 1.556zm-6.96-2.43 1.499-.794-.498-.94-1.062.04.062 1.694zm-5.61-5.115 1.692-.098-.062-1.068-.99-.404-.64 1.57zm4.633-9.799-.808 1.492 1.412.765.84-1.369-1.444-.887zm7.208-1.93-.808 1.49 1.413.765.84-1.368-1.445-.888zm7.208-1.932-.807 1.491 1.412.765.84-1.369-1.445-.887zm8.912 6.17-1.34-1.04-.656.845.48.956 1.516-.761zm-2.302 7.234-.795-1.498-.938.497.038 1.062 1.695-.06zm-4.813 5.585-.193-1.685-.983.113-.386.911 1.563.66zm-9.298 3.57a7.114 7.114 0 0 0 6.142 1.2l-.878-3.276a3.722 3.722 0 0 1-3.219-.63l-2.045 2.706zm.7.55c.345-.092.678-.208.997-.347l-1.35-3.112a3.777 3.777 0 0 1-.525.183l.878 3.277zm-8.136-3.538a7.126 7.126 0 0 0 8.136 3.539l-.878-3.277a3.733 3.733 0 0 1-4.261-1.851l-2.997 1.589zm-5.574-4.376a7.126 7.126 0 0 0 7.134 5.276l-.123-3.39a3.733 3.733 0 0 1-3.734-2.764l-3.277.878zm-.232-1.435c.028.477.104.958.232 1.435l3.277-.878a3.76 3.76 0 0 1-.122-.754l-3.387.197zm-3.138-3.281a7.115 7.115 0 0 0 4.19 4.752l1.283-3.14a3.722 3.722 0 0 1-2.197-2.49l-3.276.878zm5.037-8.724a7.123 7.123 0 0 0-5.037 8.724l3.276-.878a3.731 3.731 0 0 1 2.639-4.57l-.878-3.276zm5.235.616a7.105 7.105 0 0 0-5.235-.616l.878 3.276a3.713 3.713 0 0 1 2.742.323l1.615-2.983zM34.45 25.8a7.104 7.104 0 0 0-4.226 3.152l2.89 1.775a3.713 3.713 0 0 1 2.214-1.65l-.878-3.277zm5.236.617a7.104 7.104 0 0 0-5.236-.617l.878 3.277a3.713 3.713 0 0 1 2.742.322l1.616-2.982zm1.973-2.548a7.105 7.105 0 0 0-4.226 3.152l2.89 1.775a3.713 3.713 0 0 1 2.214-1.65l-.878-3.277zm5.235.616a7.105 7.105 0 0 0-5.235-.616l.878 3.276a3.713 3.713 0 0 1 2.742.323l1.615-2.983zm1.973-2.548a7.105 7.105 0 0 0-4.226 3.152l2.89 1.775a3.713 3.713 0 0 1 2.214-1.65l-.878-3.277zm8.724 5.037a7.123 7.123 0 0 0-8.724-5.037l.878 3.277a3.731 3.731 0 0 1 4.57 2.638l3.276-.878zm-1.253 6.212a7.115 7.115 0 0 0 1.253-6.212l-3.276.878a3.723 3.723 0 0 1-.658 3.255l2.681 2.079zm.691-.443a7.15 7.15 0 0 0-.515-1.357l-3.032 1.521c.112.223.203.461.271.714l3.276-.878zM53.49 40.88a7.125 7.125 0 0 0 3.54-8.137l-3.277.878a3.733 3.733 0 0 1-1.852 4.262l1.59 2.997zM51 39.44a3.733 3.733 0 0 1-2.764 3.734l.878 3.277a7.126 7.126 0 0 0 5.277-7.133L51 39.44zm-2.764 3.734c-.183.05-.365.084-.546.105l.387 3.37c.346-.04.693-.106 1.037-.198l-.878-3.277zm-3.51 6.56a7.114 7.114 0 0 0 4.72-4.11l-3.125-1.32a3.722 3.722 0 0 1-2.472 2.154l.878 3.276z" fill="#0BAA78"/>
</svg>
