<svg width="20" height="20" viewBox="0 0 20 20" fill="none" xmlns="http://www.w3.org/2000/svg">
    <path d="m15.686 12.54-1.201-1.222v-3.01a4.662 4.662 0 0 0-1.083-3.058 4.565 4.565 0 0 0-2.801-1.586 4.45 4.45 0 0 0-1.891.156 4.484 4.484 0 0 0-1.66.931 4.546 4.546 0 0 0-1.131 1.54 4.593 4.593 0 0 0-.404 1.875v3.152l-1.2 1.222a1.11 1.11 0 0 0-.231 1.2 1.086 1.086 0 0 0 1.004.682h2.243v.23c.03.686.33 1.33.83 1.793.5.463 1.161.707 1.839.678a2.545 2.545 0 0 0 1.84-.678c.5-.463.798-1.107.83-1.793v-.23h2.242c.215 0 .425-.066.603-.187a1.12 1.12 0 0 0 .17-1.695zm-4.351 2.112a1.273 1.273 0 0 1-.445.831 1.245 1.245 0 0 1-.89.29 1.245 1.245 0 0 1-.89-.29 1.273 1.273 0 0 1-.445-.83v-.23h2.67v.23z" fill="#F3F3F3"/>
    <circle cx="10" cy="15" r="2" fill="#F3F3F3"/>
</svg>
